{
  "version": "0.6.2b",
  "modules": [
    {
      "plugin": "Core",
      "version": "0.6.2b",
      "model": "AudioInterface",
      "params": [],
      "data": {
        "audio": {
          "driver": 5,
          "deviceName": "Apple Inc.: Multi-Output Device",
          "offset": 0,
          "maxChannels": 8,
          "sampleRate": 44100,
          "blockSize": 256
        }
      },
      "pos": [
        79,
        0
      ]
    },
    {
      "plugin": "Fundamental",
      "version": "0.6.2",
      "model": "VCMixer",
      "params": [
        {
          "paramId": 0,
          "value": 0.365999997
        },
        {
          "paramId": 1,
          "value": 1.0
        },
        {
          "paramId": 2,
          "value": 1.0
        },
        {
          "paramId": 3,
          "value": 1.0
        },
        {
          "paramId": 4,
          "value": 1.0
        }
      ],
      "pos": [
        64,
        0
      ]
    },
    {
      "plugin": "Fundamental",
      "version": "0.6.2",
      "model": "Scope",
      "params": [
        {
          "paramId": 0,
          "value": -0.0
        },
        {
          "paramId": 1,
          "value": -2.79000258
        },
        {
          "paramId": 2,
          "value": 0.0
        },
        {
          "paramId": 3,
          "value": -0.120000005
        },
        {
          "paramId": 4,
          "value": -14.5149803
        },
        {
          "paramId": 5,
          "value": 0.0
        },
        {
          "paramId": 6,
          "value": 0.0
        },
        {
          "paramId": 7,
          "value": 0.0
        }
      ],
      "data": {
        "lissajous": 0,
        "external": 0
      },
      "pos": [
        34,
        1
      ]
    },
    {
      "plugin": "Bogaudio",
      "version": "0.6.13",
      "model": "Bogaudio-FMOp",
      "params": [
        {
          "paramId": 0,
          "value": -0.3959997
        },
        {
          "paramId": 1,
          "value": 0.0
        },
        {
          "paramId": 2,
          "value": 0.0
        },
        {
          "paramId": 3,
          "value": 0.326730013
        },
        {
          "paramId": 4,
          "value": 0.613000035
        },
        {
          "paramId": 5,
          "value": 0.578730047
        },
        {
          "paramId": 6,
          "value": 0.530999959
        },
        {
          "paramId": 7,
          "value": 0.340500027
        },
        {
          "paramId": 8,
          "value": 1.0
        },
        {
          "paramId": 9,
          "value": 1.0
        },
        {
          "paramId": 10,
          "value": 1.0
        },
        {
          "paramId": 11,
          "value": 0.0
        }
      ],
      "data": {
        "linearLevel": false
      },
      "pos": [
        42,
        0
      ]
    },
    {
      "plugin": "Bogaudio",
      "version": "0.6.13",
      "model": "Bogaudio-FMOp",
      "params": [
        {
          "paramId": 0,
          "value": 0.0179999899
        },
        {
          "paramId": 1,
          "value": 0.0
        },
        {
          "paramId": 2,
          "value": 0.119999997
        },
        {
          "paramId": 3,
          "value": 0.316229999
        },
        {
          "paramId": 4,
          "value": 1.0
        },
        {
          "paramId": 5,
          "value": 0.316229999
        },
        {
          "paramId": 6,
          "value": 0.729000092
        },
        {
          "paramId": 7,
          "value": 0.0
        },
        {
          "paramId": 8,
          "value": 0.670500338
        },
        {
          "paramId": 9,
          "value": 0.0
        },
        {
          "paramId": 10,
          "value": 0.0
        },
        {
          "paramId": 11,
          "value": 0.0
        }
      ],
      "data": {
        "linearLevel": false
      },
      "pos": [
        32,
        0
      ]
    },
    {
      "plugin": "Fundamental",
      "version": "0.6.2",
      "model": "LFO",
      "params": [
        {
          "paramId": 0,
          "value": 1.0
        },
        {
          "paramId": 1,
          "value": 1.0
        },
        {
          "paramId": 2,
          "value": 1.0
        },
        {
          "paramId": 3,
          "value": 0.0
        },
        {
          "paramId": 5,
          "value": 0.5
        },
        {
          "paramId": 4,
          "value": 0.0
        },
        {
          "paramId": 6,
          "value": 0.0
        }
      ],
      "pos": [
        70,
        1
      ]
    },
    {
      "plugin": "Bogaudio",
      "version": "0.6.13",
      "model": "Bogaudio-FMOp",
      "params": [
        {
          "paramId": 0,
          "value": -0.386999965
        },
        {
          "paramId": 1,
          "value": 0.0
        },
        {
          "paramId": 2,
          "value": 0.119999997
        },
        {
          "paramId": 3,
          "value": 0.316229999
        },
        {
          "paramId": 4,
          "value": 1.0
        },
        {
          "paramId": 5,
          "value": 0.316229999
        },
        {
          "paramId": 6,
          "value": 0.0
        },
        {
          "paramId": 7,
          "value": 0.0
        },
        {
          "paramId": 8,
          "value": 0.324999958
        },
        {
          "paramId": 9,
          "value": 0.0
        },
        {
          "paramId": 10,
          "value": 0.0
        },
        {
          "paramId": 11,
          "value": 0.0
        }
      ],
      "data": {
        "linearLevel": false
      },
      "pos": [
        22,
        0
      ]
    },
    {
      "plugin": "AS",
      "version": "0.6.13",
      "model": "TriggersMKI",
      "params": [
        {
          "paramId": 0,
          "value": 10.0
        },
        {
          "paramId": 1,
          "value": 0.0
        },
        {
          "paramId": 2,
          "value": 0.0
        }
      ],
      "data": {
        "run": [
          0
        ]
      },
      "pos": [
        56,
        1
      ]
    }
  ],
  "wires": [
    {
      "color": "#c9b70e",
      "outputModuleId": 1,
      "outputId": 0,
      "inputModuleId": 0,
      "inputId": 0
    },
    {
      "color": "#0986ad",
      "outputModuleId": 1,
      "outputId": 0,
      "inputModuleId": 0,
      "inputId": 1
    },
    {
      "color": "#0c8e15",
      "outputModuleId": 3,
      "outputId": 0,
      "inputModuleId": 1,
      "inputId": 1
    },
    {
      "color": "#0986ad",
      "outputModuleId": 3,
      "outputId": 0,
      "inputModuleId": 2,
      "inputId": 0
    },
    {
      "color": "#0c8e15",
      "outputModuleId": 4,
      "outputId": 0,
      "inputModuleId": 3,
      "inputId": 6
    },
    {
      "color": "#0986ad",
      "outputModuleId": 6,
      "outputId": 0,
      "inputModuleId": 4,
      "inputId": 6
    },
    {
      "color": "#0986ad",
      "outputModuleId": 7,
      "outputId": 0,
      "inputModuleId": 3,
      "inputId": 5
    }
  ]
}